<svg width="14" height="17" viewBox="0 0 14 17" fill="none" xmlns="http://www.w3.org/2000/svg">
<path fill-rule="evenodd" clip-rule="evenodd" d="M9.842 10.176C9.77963 9.96768 9.49688 9.61171 9.32224 9.53976L9.37214 9.9336L8.83576 9.73668C8.88981 9.95254 9.01039 10.1608 9.13098 10.2744C8.87318 10.2366 8.77755 10.1343 8.43659 10.1457L8.52391 10.5168L7.97921 10.3388C8.13306 10.5054 8.71102 10.9106 8.96466 10.9939L8.76091 10.3994C9.0894 10.4865 9.35967 10.6607 9.76299 10.7364C9.65073 10.5319 9.45114 10.3691 9.33472 10.1381L9.842 10.176ZM13.9958 5.8816L13.8628 5.68846L13.6216 5.57486L13.1185 6.02171L13.2141 5.75284L13.3264 5.35143L13.0811 5.1848C13.0187 5.20374 12.9605 5.23025 12.9106 5.26054L12.6029 5.5029V5.49154C12.5821 5.51048 12.5655 5.52184 12.5447 5.53699C12.5447 5.16208 12.5738 5.03711 12.869 4.94244L12.8732 4.93865C12.8566 4.62434 12.9106 4.60162 12.4699 4.35168C12.4449 4.35547 12.42 4.36304 12.3992 4.36683L12.1206 4.49179L11.501 4.76067C11.0353 5.1848 11.1933 5.97248 10.5988 6.33603C10.5613 6.35875 10.5239 6.38147 10.4906 6.40798C10.42 6.46478 10.3493 6.51401 10.2827 6.55945C10.1081 6.692 9.93347 6.81696 9.67568 6.86998C9.14345 6.98359 8.61954 6.85483 8.05405 6.74501C7.8711 6.71851 7.67983 6.68821 7.47193 6.66549C6.96882 6.61247 6.34927 6.66549 5.92931 6.47614C5.8711 6.45721 5.8212 6.43449 5.77547 6.40798C5.41788 6.21484 5.28898 5.68089 5.07692 5.2151C4.61123 4.21156 4.42828 3.95784 4.22453 3.54885C4.20374 3.5072 4.18711 3.47311 4.17464 3.44282C4.16216 3.41631 4.14969 3.39359 4.13721 3.36708C4.12058 3.32921 4.12058 3.26862 4.1289 3.19667C4.1289 3.12472 4.14137 3.03762 4.15385 2.92022C4.158 2.88614 4.15385 2.85963 4.14969 2.83312L4.18295 2.54532L3.87942 2.47715L3.77547 2.29538L3.65489 2.14012C3.64241 2.12876 3.62994 2.12118 3.61746 2.10982L3.25988 2.03787L2.83576 2.42035L2.74844 2.23858L2.61123 2.00757L2.5447 2L2.27443 2.13633L2.05821 2.21964C2.0499 2.22722 2.04158 2.23479 2.03326 2.24615L1.92931 2.42414L1.73389 2.70437L1.60083 2.81798L1.38877 2.9278C1.38046 2.93916 1.36798 2.95052 1.35551 2.96567L1.25988 3.17773L1.20582 3.34436L1.07277 3.48826L1.00208 3.54885L0.885655 3.73441L0.856549 3.83287L0.806653 3.90861L0.711019 3.95027C0.636175 3.99571 0.544698 4.026 0.45738 4.06009L0.212058 4.20778L0 4.41606L0.428274 4.48043L0.860707 4.5183L0.869023 4.71144L0.943867 5.19995L1.00624 5.39308C1.02703 5.42338 1.04782 5.45746 1.07277 5.49533C1.09355 5.49912 1.11019 5.5029 1.12682 5.5029L1.20582 5.47261C1.21414 5.46125 1.22245 5.45367 1.25156 5.45367L1.38046 5.40823L1.51351 5.58622C1.53014 5.59 1.55509 5.59379 1.59667 5.59379L1.88358 5.5332L2.07069 4.9841L1.94595 5.71497L1.842 5.87402C1.80873 5.9384 1.77547 5.98763 1.73805 6.03686L1.64241 6.18834L1.4553 6.71472C1.4553 6.72608 1.45114 6.74123 1.45114 6.75259L1.49688 9.24817L1.70062 9.72532L2.01247 8.88463L2.04158 10.4335C2.05821 10.4865 2.08316 10.5395 2.11227 10.5887L2.61954 11.1303L2.63202 11.1416L3.5052 11.6983L4.48649 12.0808L5.34719 12.3459L5.72557 13.001L6.03326 13.5804L6.2869 13.8834L6.68607 14.0576L6.67775 14.5309L6.6736 15.0535L6.60291 15.383L6.48233 15.6632L6.19127 15.8261L6.08732 15.8336C6.04574 15.845 6.00416 15.8526 5.95426 15.8601C5.63825 15.898 5.34304 15.8336 5.04366 15.8071L4.54886 15.8109C4.52391 15.8185 4.4948 15.8261 4.4657 15.8336L3.87942 16.2502C3.88358 16.2502 3.88358 16.2502 3.88773 16.2502L3.98753 16.2199C4.02079 16.201 4.07069 16.1782 4.16632 16.1669L4.33264 16.1139L5.14345 16.1707C5.21829 16.1707 5.2973 16.1745 5.38462 16.1858L5.65904 16.2047L5.35967 16.3373C5.27235 16.3903 5.17672 16.4244 5.08524 16.4623L4.73181 16.6175C4.66944 16.6554 4.60707 16.7008 4.54886 16.7576L4.43659 17C4.46154 16.9886 4.48649 16.9811 4.51559 16.9659L4.61123 16.8712L5.55509 16.5531L6.00832 16.4433L6.02911 16.4357C6.14553 16.3979 6.25364 16.3752 6.35759 16.3562L6.43243 16.3373L6.52807 16.3335C6.61123 16.3297 6.68607 16.3259 6.76091 16.3297L6.98545 16.3221L8.01247 16.4433C8.04158 16.4395 8.07069 16.432 8.09979 16.4244L7.9501 16.3108C7.91268 16.2653 7.78378 16.235 7.6341 16.1593C7.48025 16.1063 7.30977 16.0608 7.16008 16.0154C7.08524 16.0116 7.0104 15.9965 6.96466 15.9586L6.93139 15.951L6.92723 15.9094C6.91476 15.8753 6.91476 15.8336 6.91892 15.7882C6.90645 15.5042 6.90645 15.2164 6.98545 14.9551L6.99376 14.9172C7.01455 14.8187 7.03534 14.7165 7.06445 14.6256C7.08524 14.5536 7.11019 14.4931 7.13514 14.4363C7.22245 14.156 7.24324 14.1182 7.29314 14.1068C7.32225 14.0386 7.43035 14.0651 7.51767 14.0045L7.5343 13.9932C7.55509 13.978 7.58004 13.9591 7.60499 13.9364C7.71726 13.8341 7.77131 13.7432 7.89189 13.6372C7.90852 13.6221 7.92516 13.6069 7.94179 13.5956C8.27443 13.2169 8.58628 13.0654 8.90644 12.9139C9.10187 12.8079 9.28482 12.717 9.4553 12.6375L9.45946 12.6337C9.50936 12.6072 10.2827 12.2285 10.8233 11.9634C11.0478 11.7248 11.1185 11.6112 11.5593 11.509C11.9917 11.4067 12.1954 11.3083 12.3326 11.1416C12.4491 10.9371 12.5904 10.5887 12.657 10.4713C12.6736 10.4486 12.6861 10.4221 12.6985 10.3956C12.711 10.3691 12.7235 10.3426 12.736 10.3123C12.8316 10.0624 12.8732 9.77455 13.0478 9.50568L13.0603 9.48296C13.1476 9.24817 13.2349 9.01717 13.3347 8.77859C13.4012 8.61954 13.4886 8.49079 13.58 8.36582C13.6008 8.32795 13.6216 8.29387 13.6383 8.26357L13.8254 8.01363C13.9459 7.80914 14.0166 7.58192 13.9584 7.25246C13.8877 6.81697 13.9168 6.5178 13.9501 6.29437V6.27165L14 5.91946C14 5.9081 14 5.89674 13.9958 5.8816Z" fill="#B1B2B3"/>
</svg>
