<?xml version="1.0" encoding="UTF-8" standalone="no"?>
<svg
   version="1.1"
   width="120"
   height="56"
   viewBox="0 0 120 56"
   xmlns="http://www.w3.org/2000/svg"
   xmlns:svg="http://www.w3.org/2000/svg">
  <path
     d="m 15.3434,39.505685 c 0.8038,-0.7142 6.8063,-15.079 7.7439,-17.2073 1.7178,-3.8993 6.0087,-14.2196998 7.5994,-17.2954998 l -5.5293,-0.006 c -0.7437,0.1473 -0.7278,0.8266 -1.3842,2.3821 L 17.9207,21.167985 c -0.751,1.7424 -1.758,3.7213 -2.3248,5.5215 L 6.2382,5.0160852 0,4.9981852 c 1.3165,2.5556 2.5744,5.8959998 3.756,8.5718998 l 9.4717,21.7379 c 0.5277,1.2538 1.2737,3.6009 2.1157,4.1976 z"
     style="fill:#161616;fill-rule:evenodd"
     id="path2" />
  <path
     d="m 32.9663,26.126185 c 0.1161,-2.7648 2.1958,-4.8486 4.9372,-5.109 3.3891,-0.322 5.0098,1.4461 5.185,4.5584 z m 14.388,6.2871 c -1.8037,0.4163 -4.8308,2.7547 -8.7461,2.4106 -1.9721,-0.1733 -3.0793,-0.685 -4.0953,-1.6878 -1.4531,-1.4342 -1.1448,-1.8264 -1.7706,-3.9468 l 15.0118,-0.6174 c 0.6067,-1.522 0.7895,-2.215 0.4678,-4.3708 -1.5751,-10.5556 -17.7735,-9.974 -20.5339,0.4259 -1.8057,6.8031 2.1431,12.0475 6.3983,13.7232 4.7749,1.8803 11.9533,-0.3816 12.6476,-1.2163 0.3908,-0.4699 0.5549,-3.8349 0.6204,-4.7206 z"
     style="fill:#161616;fill-rule:evenodd"
     id="path4" />
  <path
     d="m 54.0231,11.336785 -0.009,6.1596 -3.2948,0.0962 -2e-4,4.5142 3.2957,0.0291 c -9e-4,4.3516 -1.2736,15.5019 2.9088,16.5342 1.1804,0.2914 4.5719,-0.3937 5.9789,-0.4581 -1.1949,-1.5408 -3.1934,-2.0509 -3.279,-6.2774 -0.0662,-3.2665 -0.0308,-6.5579 -0.0308,-9.8278 h 5.6228 l 0.003,-4.5276 h -5.6336 l 0.003,-7.2326 z"
     style="fill:#161616;fill-rule:evenodd"
     id="path6" />
  <path
     d="m 91.3683,4.9207852 c -0.009,-0.1095 -3.4752,3.8257 -4.6503,8.6084998 -1.2142,4.9417 -1.1927,7.0248 -1.0593,10.2065 0.2765,6.591 2.3793,10.847 3.9711,13.1131 0.946,1.3467 1.717,1.9585 1.6445,2.0532 -1.6259,2.124 -4.9488,2.7479 -8.4287,1.7688 -3.7885,-1.066 -7.7669,-4.0075 -9.9844,-8.6427 -2.1312,-4.4548 -2.9168,-10.4722 -1.715,-15.848 0.9286,-4.1537 3.1175,-7.8740998 6.0763,-10.4794998 2.0629,-1.8166 4.4983,-2.6963 6.6001,-3.015 2.2908,-0.3474 4.3799,-0.1447 6.328,1.1895 0.8004,0.5482 1.2184,1.0546 1.2177,1.0456 z"
     style="fill:#5d9ff5;fill-rule:evenodd"
     id="path8" />
  <path
     d="M 90.7381,6.8517654e-4 C 90.7656,-0.04061482 94.5053,1.7813852 97.1201,6.4877852 c 1.3448,2.4205 2.2551,5.4418998 2.6622,7.1690998 1.8037,7.6504 0.9638,18.4652 -3.4768,25.0117 -2.6131,3.8522 -5.9136,4.9311 -5.6818,5.1805 4.0016,4.3057 7.8507,7.4277 14.0798,7.6602 4.584,0.1711 8.3799,-1.1588 8.2605,-1.3395 -0.1925,-0.2911 -3.1287,-1.4419 -5.6425,-3.7677 -2.1428,-1.9823 -3.5224,-5.1478 -3.3315,-5.2083 3.7021,-1.1749 7.3106,-4.5944 9.3115,-8.7676 2.1855,-4.5583 2.9736,-10.8702 1.7719,-16.246 -0.9286,-4.1536 -3.1176,-7.8740998 -6.0763,-10.4794998 -2.0628,-1.8165 -4.8002,-3.2085 -7.5036,-4.2786 C 97.7605,-0.05541482 90.7276,0.01638518 90.7381,6.8517654e-4 Z"
     style="fill:#105bb5;fill-rule:evenodd"
     id="path10" />
</svg>
