<svg width="24" height="17" viewBox="0 0 24 17" fill="none" xmlns="http://www.w3.org/2000/svg">
    <path fill-rule="evenodd" clip-rule="evenodd" d="M9.66336 17C9.71424 16.9765 9.8126 16.9597 9.86348 16.9429C10.1416 16.8387 10.0161 16.6975 10.0873 16.1598C10.1145 15.9615 10.2739 15.8136 10.3655 15.6859C10.5995 15.3632 10.3621 14.8658 10.2807 14.4961C10.1179 13.7533 10.3621 12.6442 10.6199 11.9317C10.7691 11.8779 12.2513 11.8745 12.5329 11.8745C13.7641 11.8712 14.7783 11.3065 16.0231 11.5082C16.3521 11.5586 16.4436 11.6661 16.5759 11.9249C16.7557 12.2678 16.9151 12.1837 17.0677 12.3988C17.0169 12.6509 16.8948 12.7618 17.044 12.9971C17.2713 13.0139 17.4612 12.8458 17.4816 12.6543L17.7665 12.7719L17.8004 13.3063C18.126 13.2592 18.1328 13.2929 18.204 12.9299C18.2685 12.6005 18.1871 12.6307 18.5737 12.5299C18.628 12.6475 18.7365 12.8963 18.9027 12.8626C19.0859 12.8257 18.9468 12.5064 18.9265 12.3753L19.052 12.3215C19.0893 12.661 19.0622 13.0206 19.0486 13.3836C19.0282 13.9482 18.9875 14.8423 18.6585 15.2859C18.6076 15.3598 18.5737 15.3632 18.5093 15.4237C18.2922 15.622 18.2311 15.6388 18.1972 15.9715C18.5941 15.9749 19.0655 16.1732 19.4115 15.9715C19.4115 15.8573 19.3844 15.6052 19.3979 15.5145C19.4047 15.4472 19.5031 15.2355 19.5472 15.1851L19.7371 15.2153C19.7303 14.8591 19.6218 14.7549 19.7303 14.3751C19.8084 14.1028 19.883 13.8877 19.9237 13.6054C19.9406 13.4743 19.9678 13.3164 20.0017 13.1954C20.0424 13.0374 20.0051 12.9803 19.9305 12.8526C19.7812 12.5971 19.71 12.4929 19.5268 12.3115C18.9943 11.7838 18.4075 11.7367 18.0107 10.9435C17.9089 10.7385 17.8038 10.4428 17.8275 10.1907C17.8784 10.2344 18.0446 10.4797 18.0887 10.557C18.3193 10.9368 18.7331 11.4712 19.0723 11.7737C19.1368 11.8308 19.1741 11.851 19.2385 11.9149C19.5099 12.1871 19.9508 12.5467 20.1441 12.8593C20.3171 13.1382 20.29 13.5752 20.3171 13.9314C20.3477 14.3112 20.385 14.691 20.4087 15.0742C20.4257 15.343 20.4155 15.417 20.2696 15.5649C20.0458 15.7867 19.8999 15.9883 19.7236 16.2505C19.5201 16.5463 19.5438 16.395 19.5913 16.6505H20.8361C20.8937 16.4959 20.9989 16.3412 21.0701 16.1833C21.1854 15.9245 21.0633 15.901 21.3177 15.7296C21.5246 15.5884 21.5348 15.538 21.528 15.2254C21.5246 14.7683 21.4839 14.3448 21.4636 13.8877C21.4466 13.4777 21.4263 13.397 21.7315 13.1584C21.8129 13.0946 21.8265 13.0677 21.8943 12.9668C22.3455 12.2946 21.796 11.8947 21.8163 11.3032C21.8265 11.0544 22.3455 8.93032 22.4608 8.4665L22.6134 7.91866C22.6202 8.21779 22.6711 8.63119 22.6779 9.02442C22.688 9.38069 22.7186 9.75711 22.7457 10.1134C22.8305 11.1351 23.2443 11.935 23.4037 12.9164C23.4851 13.4038 23.3935 13.5113 23.3223 13.9214C23.2172 14.5028 23.2748 15.3498 23.7972 15.6892C23.9091 15.6287 23.8955 15.5783 23.9634 15.5212C23.4173 14.9969 24.1126 14.1297 23.9837 13.4138C23.9125 13.0206 23.8107 13.4811 23.4682 12.3921C22.7898 10.2142 23.1968 8.1136 22.956 6.72552C22.9458 6.66502 22.956 6.71544 22.9458 6.67175C22.8339 6.1508 22.5965 5.7542 22.2674 5.34752C22.1521 5.203 22.0097 5.06856 21.8706 4.94757C21.1515 4.2989 21.2329 4.40645 20.3918 4.11405C19.1639 3.68384 18.9774 3.80148 17.7665 4.03675C17.4748 4.09388 17.1288 3.96617 16.8473 3.94264C15.9281 3.86198 14.7715 3.83845 13.8387 3.81828C13.1637 3.80484 12.4752 3.89559 11.885 3.70737C11.1218 3.46538 11.1761 3.44186 10.2942 3.22339C9.64979 3.06543 9.44289 3.30406 8.64241 3.50235C8.07937 3.64351 7.4417 3.75443 6.80403 3.75443C6.42076 3.75443 5.4473 3.6536 5.14203 3.32758C5.26075 3.20659 5.47104 3.16289 5.58297 3.03854C5.69829 2.91082 5.69151 2.58817 5.60332 2.45709C5.52531 2.39996 4.88764 2.66211 4.74179 2.70916C4.60951 2.7495 4.60273 2.80663 4.51454 2.87385C4.51454 2.21174 3.82261 2.30585 3.27652 2.41676C2.97125 2.48062 2.74739 2.53103 2.46587 2.40668C2.29967 2.33274 2.08259 2.15797 1.99101 2C1.9537 2.17477 2.00458 2.48398 2.06224 2.6117C2.14025 2.78983 2.24879 2.87721 2.48961 2.86041C2.80166 2.8436 3.45629 2.64531 3.65641 2.85032C3.59535 2.96796 2.56084 3.53596 2.28271 3.71409C1.97405 3.91239 1.94692 3.84853 1.88247 4.06363C1.83838 4.21824 1.60095 4.31235 1.4551 4.38629C0.997201 4.61819 0.518952 5.04168 0 5.16267C0 5.50213 0.0474856 5.62648 0.111931 5.92225C0.1662 6.17096 0.250997 6.29868 0.430764 6.45664L0.769948 6.43984C0.861528 6.56083 0.915798 6.67175 1.09556 6.67847C1.60095 6.70199 2.09955 6.53395 2.57441 6.46C3.3274 6.34237 3.03231 6.86668 3.77173 7.47166C4.72144 8.24804 5.71525 8.40937 6.24099 9.51512C6.58017 10.2243 6.92275 11.1418 7.56381 11.5788C7.70287 11.6729 7.8148 11.6762 7.97083 11.7468C8.09633 11.8006 8.21504 11.8712 8.3168 11.9518C8.93072 12.4324 8.73399 12.456 9.04265 12.9198C9.26312 13.2458 9.20885 13.4643 9.24616 13.834C9.30721 14.4591 9.39201 14.7045 9.2699 15.3229C9.16137 15.1111 9.21903 15.0607 9.20207 14.8154L9.17154 13.6894C9.17154 13.3836 8.45247 12.1905 7.97761 11.9754C8.04206 12.298 7.97083 12.6375 8.04545 12.9198C8.12007 13.1954 8.26931 13.3265 8.32019 13.6592C8.36767 13.9516 8.40159 14.244 8.44908 14.5398C8.50674 14.933 8.60171 15.1011 8.6492 15.3565C8.53727 15.464 8.44569 15.5077 8.23878 15.706C8.18112 15.7632 7.97761 16.0757 7.95387 16.1732C8.37107 16.3648 8.42873 16.3177 8.89002 16.2673L8.69668 16.9025L8.91037 16.9361L8.92054 17H9.66336Z" fill="#B1B2B3"/>
</svg>
