<svg xmlns="http://www.w3.org/2000/svg" viewBox="0 0 20 20" id="type-animal7">
<path d="M4.834 6.907c.783.003 1.38.56 1.905 1.137.203.225.373.512.65.65.432-.01.795.147 1.13.375 1.402.013 2.986-.44 4.142.398.69.508 1.19 1.18 1.224 2.01.016.076.11.09.173.112.242.04.532.04.705-.147.402-.504.858-1.147 1.58-1.066.495.054.964.3 1.255.732.01.114.126.227.038.342-.151.05-.268-.12-.41-.156-.33-.119-.746-.009-1.013.256-.233.336-.398.794-.818.966-.32.218-.733.214-1.15.21l-1.282.005c-.424.423-2.867.62-3.044.157.008-.066.168-.179.35-.283-.057-.022-.124-.047-.132-.052-.116-.07-.215-.132-.303-.188a9.874 9.874 0 01-.637.048c-.436 0-1.07-.06-1.68-.077-.352.145-.786.196-1.096.235-.322.04-.558.092-.79.134l-.023.007H5.59c-.328.057-.657.087-1.217.018-.346-.043-.316-.026-.333-.038l-.186-.003c-.129-.06-.141-.221-.133-.34.23-.478.938-.141 1.188-.62-.023-.27-.206-.471-.181-.761-.016-.446.414-.922.005-1.31-.077-.07-.121-.189-.23-.202-.302.166-.604-.025-.834-.216a.515.515 0 01-.37-.304c-.028-.289.278-.445.193-.757.072-.353.257-.697.591-.906-.004-.28-.108-.568-.011-.83.028-.034.06-.059.103-.05l.658.514z" fill="#B1B2B3"></path></svg>