<svg width="13" height="17" viewBox="0 0 13 17" fill="none" xmlns="http://www.w3.org/2000/svg">
<path d="M2.81052 5.1186C2.66505 4.94941 2.45236 4.83074 2.28486 4.68388C2.10854 4.53114 2.04462 4.33963 1.9234 4.15517C1.86058 4.06118 1.74487 3.92606 1.66112 4.04943C1.59831 4.14107 1.67545 4.35373 1.69749 4.45242C1.75259 4.69445 1.90246 5.00111 1.89034 5.24079C1.88152 5.4135 1.76912 5.46872 1.66443 5.57799C1.56525 5.68138 1.51786 5.79065 1.44403 5.90344C1.34484 6.04795 1.2655 6.12432 1.25007 6.30996C1.2115 6.7482 0.829104 6.88801 0.506215 7.11125C0.367362 7.20759 -0.0139332 7.42612 0.000392953 7.62351C0.0158211 7.82677 0.410341 7.97128 0.542582 8.06175C0.718903 8.18394 0.605396 8.12284 0.604294 8.28498C0.604294 8.43067 0.733229 8.43772 0.851144 8.46944C0.980113 8.5123 1.11657 8.52315 1.25007 8.50116C1.36909 8.47532 1.49472 8.34138 1.62475 8.38015C1.82863 8.44359 1.89805 8.87126 1.94654 9.04867C2.02148 9.3236 2.15152 9.57973 2.22204 9.86289C2.28376 10.1061 2.37082 10.3505 2.43363 10.6031C2.46669 10.7323 2.44245 10.8686 2.46449 11.0072C2.48542 11.133 2.56036 11.2422 2.61877 11.355C2.67828 11.4749 2.71795 11.6135 2.80611 11.7122C2.88876 11.8015 2.98243 11.8555 3.05296 11.9578C3.19181 12.1575 3.31303 12.3972 3.44748 12.604C3.68551 12.9682 3.75274 13.2854 3.85743 13.7001C3.96102 14.1184 4.10648 14.5308 4.12632 14.9667C4.13967 15.1011 4.1273 15.237 4.08995 15.3662C4.04587 15.4884 3.91693 15.5918 4.02383 15.7069C4.2244 15.9231 4.48778 15.6564 4.60238 15.5072C4.72691 15.681 4.65859 16.1428 4.58916 16.3366C4.51973 16.5329 4.20125 16.7432 4.3897 16.9253C4.56602 17.0956 4.91866 16.9335 5.09939 16.8454C5.33081 16.7338 5.36718 16.4236 5.42448 16.1921C5.4906 15.929 5.50603 15.6399 5.55893 15.3697C5.61403 15.0924 5.66031 14.8292 5.68676 14.5461C5.71431 14.2606 5.76611 13.9868 5.80578 13.7048C5.83333 13.5075 5.75398 13.0845 5.91598 12.9682C6.03169 12.8859 6.23115 12.9553 6.36229 12.94C6.53311 12.92 6.6929 12.8754 6.84938 12.8013C7.16346 12.6509 7.43455 12.4113 7.75744 12.2809C7.98445 12.1892 8.26987 12.1728 8.50129 12.0964C8.72941 12.0212 8.90243 11.899 9.09307 11.7463C9.33882 11.5501 9.33221 11.7063 9.48759 11.9131C9.62755 12.0987 9.7113 12.2879 9.82481 12.4829C9.93721 12.6768 10.1146 12.8425 10.1874 13.0422C10.3295 13.437 10.4155 14.1443 10.1212 14.4873C10.0452 14.5755 9.93611 14.606 9.9273 14.7388C9.91407 14.9455 10.0573 14.8856 10.1907 14.8786C10.5047 14.861 10.5698 14.8034 10.7207 14.5144C10.8354 14.2958 10.9301 14.0832 11.0161 13.8482C11.0734 13.6931 11.1373 13.5427 11.1274 13.3712C11.1219 13.269 10.972 12.9928 11.0756 12.9165C11.1593 12.8542 11.3665 13.0257 11.4249 13.0704C11.6563 13.2502 11.879 13.4981 12.031 13.7577C12.1511 13.961 12.214 14.2124 12.2448 14.4403C12.2757 14.6694 12.3638 15.0548 12.2669 15.2687C12.2217 15.3662 12.0443 15.4472 12.1346 15.5741C12.1897 15.6552 12.3958 15.6282 12.4751 15.6141C12.7837 15.56 12.8245 15.4085 12.8686 15.1065C12.9093 14.8222 12.8796 14.5214 12.9226 14.2347C12.9644 13.9469 13.0636 13.8176 12.9402 13.5251C12.8454 13.3018 12.6746 13.0951 12.6382 12.846C12.5775 12.4355 12.5838 12.017 12.657 11.6088C12.7451 11.1647 12.981 10.737 12.9016 10.2694C12.8575 10.0133 12.7176 9.81824 12.6349 9.57268C12.5501 9.32243 12.5424 9.12034 12.4046 8.89123C12.2801 8.6821 12.0751 8.50939 12.0762 8.24033C12.0773 7.89961 12.2007 7.64113 12.0972 7.29101C12.0564 7.15472 11.9715 7.03253 11.9363 6.88801C11.8955 6.72118 11.9087 6.56256 11.8338 6.40395C11.7599 6.7153 11.5296 6.0691 11.4855 5.97863C11.4668 6.00918 11.4216 6.06205 11.4073 6.102C11.3235 5.97628 11.2773 5.79065 11.1935 5.65906C11.1527 5.73308 11.0723 5.87054 11.0095 5.73425C10.9745 5.71809 10.9379 5.70626 10.9004 5.699C10.9312 5.94573 10.8761 5.83999 10.7196 5.81649C10.5874 5.79535 10.5036 5.85762 10.3582 5.78712C10.3736 6.13959 10.0364 6.06323 9.80167 6.0644C9.84105 6.0992 9.86728 6.14803 9.8755 6.20186C9.76861 6.19364 9.49641 6.30173 9.6 6.43215C9.54931 6.47562 9.48098 6.46152 9.42368 6.50734C9.44021 6.52379 9.45233 6.55669 9.46886 6.57314C9.41927 6.64128 9.33662 6.66243 9.25617 6.6636C9.25176 6.76112 9.22091 6.85981 9.20768 6.95733C9.20217 7.0008 9.2143 7.05133 9.20438 7.09832C9.19336 7.15237 9.14156 7.14767 9.13826 7.20406C9.12613 7.40732 9.34213 7.58943 9.03907 7.64583C8.87267 7.67755 8.69415 7.68108 8.51452 7.72925C8.18061 7.81737 7.86654 7.82794 7.52932 7.83499C7.353 7.83734 7.17448 7.87259 6.99815 7.89139C6.72957 7.92647 6.45729 7.87447 6.21683 7.74217C5.99643 7.62703 5.74076 7.68343 5.52256 7.57651C5.31318 7.47077 5.13025 7.25576 4.92087 7.13357C5.20739 7.14179 4.94291 6.77405 4.86136 6.64716C4.74565 6.46504 4.64647 6.23124 4.4999 6.0832C4.40513 5.98568 4.339 6.01623 4.2244 5.95866C4.1164 5.90461 4.09215 5.82237 4.03044 5.71075C3.8409 5.36063 3.53013 5.13035 3.36924 4.75085C3.31854 4.62748 3.27557 4.36548 3.15985 4.29029C2.94276 4.14695 2.913 4.50412 2.89317 4.64511C2.86782 4.82604 2.8006 4.99758 2.77856 5.17147L2.81052 5.1186Z" fill="#B1B2B3"/>
</svg>
