<svg width="21" height="17" viewBox="0 0 21 17" fill="none" xmlns="http://www.w3.org/2000/svg">
    <path fill-rule="evenodd" clip-rule="evenodd" d="M19.2992 11.7637C19.0785 11.495 18.9563 11.196 18.8223 10.8937C18.5898 10.3731 18.6411 10.4369 18.8578 9.94644L19.7878 8.29374C19.7642 8.84464 19.3977 9.40898 19.2519 9.92629C19.0785 10.5612 19.3977 11.5051 19.2992 11.7637ZM2.38966 1.36717C2.17687 1.59224 1.8025 1.63591 1.64487 1.90464C1.59758 1.9819 1.59758 2.01549 1.54242 2.10955C0.773981 3.44313 -0.120555 3.57413 0.0134282 4.03098C0.123768 4.424 0.750337 5.30746 1.51877 4.50798C1.74733 4.27284 1.48725 4.39041 1.87737 4.23253C2.28721 4.06121 3.02017 3.58757 3.41818 3.74209C3.69797 3.8563 3.90683 4.88084 4.09204 5.29402C4.33242 5.83148 4.47035 6.04983 4.75408 6.56714C5.04569 7.09116 4.8723 7.93431 4.91959 8.56583C4.9787 9.40898 5.39641 9.51647 5.9087 9.92293C6.51951 10.4033 6.38946 10.5578 6.66925 11.4177C6.84658 11.9519 7.04362 12.6573 7.14607 13.2115C7.24459 13.7692 7.22095 14.3536 7.25247 14.9616C7.28006 15.5529 7.28794 15.4554 6.91357 15.7645C6.73624 15.9123 6.47222 16.2079 6.50374 16.5102C7.3904 16.611 7.57955 16.3456 7.75294 16.3221C7.91057 16.2986 8.33616 16.4632 8.49773 16.1508C8.5726 16.003 8.55684 15.8082 8.48197 15.6839C8.41892 15.573 8.27705 15.61 8.3204 15.3244C8.37163 14.9784 8.73417 15.049 8.81693 14.6492C8.86027 14.4242 8.46621 13.6583 8.44256 13.1679C8.41498 12.6674 8.36375 12.6506 8.22976 12.2407C8.12336 11.9216 8.15489 11.5521 8.15489 11.2095C8.14701 9.64076 7.94997 10.195 11.7291 9.85574C12.6394 9.77176 13.0177 9.75161 13.8413 9.49967C14.1329 9.40898 14.4915 9.2343 14.8541 9.24438C15.3861 9.25782 15.1457 9.46608 15.8905 9.36195C16.0678 10.0035 16.2175 10.7493 16.4973 11.3405C16.6865 11.7402 16.6628 11.9418 16.7811 12.365C16.8953 12.7614 17.0372 13.0133 16.8323 13.4366C16.5919 13.9371 16.0087 15.5495 15.5713 15.8451C15.2639 16.0534 15.0432 16.2012 14.9447 16.5572C15.7131 16.695 15.7565 16.5539 16.3397 16.4229L16.3436 15.8317C16.8008 15.4958 16.9663 15.751 16.9781 14.9616C16.982 14.5014 17.585 13.4064 17.8647 12.9697C18.117 12.5666 17.916 12.2071 17.9042 11.7335C18.2549 12.0056 18.2667 12.4994 18.448 12.9361C18.6765 13.4735 18.578 13.44 18.5268 14.0345C18.4716 14.6291 18.2943 15.133 18.2903 15.7712C18.2864 16.349 17.7426 16.3187 17.6165 16.9301C18.377 17.041 18.5898 17.0443 19.1297 16.7588C19.1336 16.0735 19.043 16.4531 18.8775 16.0567C19.0982 15.7343 19.3267 15.9963 19.244 15.4554C19.1849 15.0658 19.1888 14.8306 19.2006 14.441C19.2164 14.0077 19.1849 13.1914 19.4804 12.9294L19.6696 13.4131C19.705 13.6314 19.6341 13.8195 19.5987 14.0312C19.6578 14.0614 19.5159 14.226 19.8075 13.9875L19.8509 14.3033L20.0873 14.0916L20.2016 14.3772C20.2449 14.179 20.2567 14.0211 20.375 13.8733C20.4932 14.0009 20.4656 13.9875 20.4774 14.1857C20.5168 13.7893 20.5956 13.5945 20.639 13.2754L20.8281 13.5911C20.7139 12.4221 21.2183 12.3113 20.8833 10.2185C20.7927 9.64748 20.5917 9.24774 20.5326 8.67332C20.4695 8.0418 20.4577 7.62527 20.2843 7.02734C20.1898 6.70822 19.9533 6.34543 19.6144 6.20099C18.8184 5.86507 18.8105 5.5997 17.8372 5.38136C15.1299 4.78007 12.131 6.17412 9.91244 5.26043C9.30163 5.00849 8.90362 4.92451 8.51349 4.58188L6.4998 2.87879C5.90082 2.39171 4.78166 1.562 4.08416 1.21265C3.78467 1.05813 3.62704 1.08165 3.57581 0.732294C3.497 0.191472 3.48123 0.463562 3.22903 0.0705421C2.82708 0.396379 3.10687 0.564337 3.18962 0.960717L2.72462 0.977512C2.49212 0.661753 2.53153 0.362789 2.18869 0C2.16504 0.11757 2.10593 0.621443 2.11382 0.728935C2.1414 1.07157 2.33055 1.13203 2.38966 1.36717Z" fill="#B1B2B3"/>
</svg>
