<svg width="21" height="17" viewBox="0 0 21 17" fill="none" xmlns="http://www.w3.org/2000/svg">
    <path fill-rule="evenodd" clip-rule="evenodd" d="M8.02067 16.2801L8.0498 15.8003C8.48187 15.6011 8.31681 15.3449 8.3605 14.8529C8.41876 15.0603 8.53041 15.4384 8.51099 15.6743C8.4673 16.1215 8.27797 16.2273 8.02067 16.2801ZM8.02067 16.2801C7.88474 16.4997 7.89931 16.3696 7.7925 16.5282C7.6857 16.6908 7.66628 16.7233 7.77308 16.9226C8.74887 17.069 8.79257 16.5526 9.17123 16.2354C9.30716 16.1175 9.28289 16.1988 9.35085 16.0118C9.51106 15.5685 8.99646 14.8529 8.96733 14.0031C8.95277 13.5842 9.1955 13.5436 9.45766 12.9052C9.7101 12.279 10.4723 12.9011 11.0063 12.9743C11.1228 12.9906 11.351 13.0028 11.4918 13.0272L12.7152 13.3606C13.3754 13.5883 13.555 13.7591 14.2152 13.4135C14.5551 13.2346 14.6522 13.3321 14.9774 13.1451C15.2493 12.9865 15.293 12.8808 15.6522 12.7995C16.8076 13.3972 15.628 13.0922 16.8076 13.7266C16.8222 13.7347 16.8465 13.7428 16.861 13.755C17.1669 13.9177 17.1183 13.8689 17.3562 14.3202C17.5164 14.6252 17.2154 15.7312 17.1717 15.8125C17.0067 16.1093 16.4193 16.2801 16.2931 16.7315C17.8174 17.0324 17.5407 16.4997 17.9825 16.1907L18.2009 16.0687C18.2155 16.0605 18.2349 16.0443 18.2495 16.0321C18.633 15.6743 18.3611 14.8976 18.8078 14.3284C19.0942 14.7106 19.2787 15.1741 19.1282 15.7962C19.0117 16.2883 18.2058 16.3167 18.3077 16.9388C19.4632 17.1421 19.4195 16.8006 19.8612 16.4712C20.4389 16.0321 20.2302 15.8938 20.1574 15.0806C20.0991 14.4463 20.3176 14.6415 20.3613 14.0885C20.4292 13.202 20.1914 13.7225 20.0651 13.1044C19.9923 12.7426 19.9438 12.3725 20.1088 12.0554C20.1428 11.9822 20.1719 11.9903 20.2059 11.8643C20.3273 11.4048 20.0312 11.9578 20.405 11.2503C20.7691 10.5631 20.5166 10.4736 20.5894 10.1321L20.6477 9.96129C20.7011 9.77831 20.7448 9.69292 20.8031 9.53434C20.9147 9.22531 20.9244 8.8065 20.973 8.46494C21.0506 7.9648 20.9487 7.80622 20.8225 7.4118C20.5409 6.5335 20.7642 7.10277 20.2351 6.61076C19.701 6.11062 19.4292 5.71214 18.4485 5.61048C17.8029 5.54542 17.8417 5.40717 17.3271 5.34618C16.9096 5.29332 16.361 5.32585 15.9241 5.29739C14.8124 5.28925 13.1472 5.25673 12.0792 5.34212C10.1907 5.49256 10.0548 5.14694 8.91879 4.95583C8.0498 4.80538 7.60317 4.85417 7.10314 4.43129C6.5934 4.00028 5.7681 3.76851 5.37972 3.52047C4.60298 3.02033 5.18554 3.40662 4.0544 3.11792C3.7437 3.0366 3.94759 3.15045 3.71942 3C1.19499 3.32529 1.86008 4.19545 1.62706 4.61427C1.28723 4.91517 0.830888 5.05748 0.452222 5.37058C0.11725 5.64301 0.253181 5.57795 0.185215 5.97237C0.122104 6.34239 -0.164323 6.38712 0.131813 6.62703C0.442513 6.91166 1.32607 6.72461 1.81153 6.74901C2.46692 7.46872 2.05912 7.33047 2.17078 7.64357C2.19505 7.70456 2.36982 8.06645 2.41837 8.1925C2.52032 8.46087 2.48633 8.70484 2.56401 8.91222L2.88927 9.39609C3.16114 9.92469 3.13686 9.49774 3.21454 9.84744C3.28736 10.1849 3.01064 9.96942 3.32619 10.3882C3.62233 10.7745 3.433 10.5468 3.55436 11.0388C4.31169 11.1689 3.97187 11.1567 4.26315 11.5796C4.72434 12.2302 4.72434 12.0635 4.9962 12.1733C5.2535 12.279 5.27778 12.3685 5.42342 12.4295C5.68071 12.5352 6.30211 12.4132 6.81671 12.7791C7.31674 13.1288 6.59339 12.8808 7.13227 13.4094C7.17596 13.4582 7.1711 13.4094 7.30703 13.572C8.39448 14.8976 7.09828 15.9711 7.10799 16.3167C7.60317 16.3411 7.58375 16.337 8.02067 16.2801Z" fill="#B1B2B3"/>
</svg>
