<svg width="24" height="17" viewBox="0 0 24 17" fill="none" xmlns="http://www.w3.org/2000/svg">
    <path fill-rule="evenodd" clip-rule="evenodd" d="M22.9083 8.60844C22.8917 8.62313 22.8917 8.60844 22.871 8.65616L22.8585 8.79566C22.9249 8.74059 23.0038 8.70756 22.9083 8.60844ZM2.32434 8.28174C2.29944 8.19731 2.25793 8.12022 2.22472 8.02478C2.19566 7.94035 2.17076 7.84124 2.14585 7.74579C1.93001 6.98593 1.78888 7.00795 1.1372 6.56011L1.1206 6.21872C1.6021 6.40593 2.1168 6.29948 2.65226 6.55277C2.8598 6.65555 3.04659 6.79137 3.20432 6.90884C3.37035 7.03365 3.54469 7.1401 3.75223 7.26124C4.06354 7.05567 4.30844 6.82074 4.57824 6.58581C5.40011 5.85898 6.79064 5.40012 7.98193 5.40746C9.30604 5.41848 9.94112 5.50658 11.4064 5.29367C11.8215 5.23493 12.8343 5 13.0501 5C13.3822 5 13.5939 5.04772 13.8637 5.04772C14.4406 5.05506 15.5821 5.04038 16.0096 5.06608C17.0224 5.13215 17.5953 5.21658 18.4794 5.48455C19.459 5.78189 21.5635 6.68125 21.9495 7.61364C22.1736 7.61731 22.6634 7.71276 22.7797 7.83756C22.8046 7.83022 24 7.24289 24 7.78617C24 8.14592 23.7385 7.99174 23.2695 8.17895C23.3483 8.3625 23.5227 8.49098 23.5227 8.7773C23.5227 9.1554 23.2528 9.40502 22.8793 9.40869C22.5306 9.41236 22.2899 9.10034 22.2899 8.803C22.2899 8.50199 22.3272 8.49098 22.431 8.22667L22.1363 8.14592C22.1861 8.59376 22.074 9.11135 21.9619 9.52615L21.6589 10.5467C21.5427 10.8844 21.4057 11.178 21.3144 11.5341C21.2272 11.8755 21.1069 12.1765 20.9491 12.4702C20.7582 12.8262 20.671 13.0245 20.5797 13.4319C20.4054 14.2102 20.1522 14.7314 19.9405 15.4436C19.7869 15.9501 19.3054 15.6932 18.9152 15.7996C18.8654 15.9942 18.9816 16.2842 18.9235 16.4237C18.8986 16.4861 18.799 16.5632 18.7616 16.6329C18.716 16.721 18.7533 16.7944 18.7616 16.9046L17.3504 16.8422C17.2756 16.5448 17.9564 16.4347 17.9979 15.5243C18.0269 14.8379 17.6243 14.5479 17.4292 14.1698C17.3006 13.9165 17.3006 13.6485 17.2549 13.3622C17.1636 12.7308 16.7692 12.6537 16.5866 12.0627C16.5077 11.8094 16.4247 11.5341 16.4247 11.2625C16.3957 11.4387 16.3251 11.6259 16.3251 11.8498C16.3251 12.1031 16.3168 12.3527 16.404 12.5913C16.2089 12.6904 15.8602 12.8116 15.6319 12.8923C14.1584 13.4209 12.8799 13.777 11.3483 13.23C11.1573 13.164 10.9581 13.0905 10.7588 13.0098C10.6053 12.9474 10.3438 12.8519 10.1943 12.7675L10.2358 12.4812C10.1611 12.6831 9.99093 12.8887 9.85811 13.0135C9.44717 13.3916 9.11926 13.4686 8.68342 13.7109C8.13966 14.0046 8.08985 14.2102 7.87401 14.7498C7.78684 14.9627 7.69552 15.1646 7.60835 15.3885C7.50873 15.6528 7.50458 15.7849 7.3593 16.0309C7.01894 16.5815 7.22233 16.376 7.22648 16.6806C6.76573 16.8678 6.16386 16.9449 5.62841 17C5.5786 16.9486 5.52048 16.8642 5.48728 16.7981C5.5952 16.7247 5.65746 16.6586 5.74463 16.5595C5.86085 16.4273 6.1016 16.2328 6.22197 16.0639C6.50838 15.6712 6.63706 14.5956 6.63706 14.1771C6.63706 14.0303 6.54989 13.7954 6.52914 13.6338C6.49593 13.4246 6.50423 13.2374 6.47518 13.0281C6.42952 12.6464 6.28424 12.349 5.99368 12.1912C5.76123 12.1985 5.05974 12.4995 4.81484 12.5913C3.01338 13.2667 1.96322 12.4812 1.23267 12.4812C0.97947 12.4812 1.17041 12.5913 0.896454 12.7235C0.817587 12.6684 0.560235 12.2646 0.485521 12.1618C0.348544 11.9783 0.228169 11.7984 0.0870407 11.5965C-0.0831432 11.3542 0.0164763 11.1854 0.211566 10.9982C0.38175 10.833 0.543633 10.7082 0.755325 10.5613C0.863247 10.4842 0.937962 10.4218 1.05003 10.3484C2.18736 9.58856 1.75983 9.65831 2.00473 8.91679C2.04208 8.803 2.09189 8.68186 2.1417 8.56439C2.22057 8.37351 2.19566 8.41389 2.32434 8.28174Z" fill="#B1B2B3"/>
</svg>
