<svg xmlns="http://www.w3.org/2000/svg" fill="none" viewBox="0 0 19 22" id="farm-group6">
    <path d="M9.09125 1.23585L5.18107 3.50033L5.18194 3.50208L0.863281 6.00285V15.9972L5.18194 18.4979L5.18107 18.4993L9.49842 21L13.8158 18.4993L13.8149 18.4979L18.1336 15.9972V6.00285L13.8149 3.50208L13.8158 3.50033L9.49842 1L9.09125 1.23585ZM10.0032 14.8249V16.8453H10.6954V14.8249L11.5001 14.3589L11.4997 14.3585L12.3259 13.8798L13.152 14.3585L13.1516 14.3589L14.3022 15.0252L15.4528 14.3589V14.3585L16.6034 13.6918V11.0295L15.4528 10.3632V10.3623L14.3022 9.69604L14.1476 9.78563L13.1516 10.3623L13.152 10.3632L12.3259 10.8415L11.4997 10.3632L11.5001 10.3623L10.695 9.89631V7.96034L12.7488 6.77145L12.4055 6.17195L10.3491 7.3626L9.54439 6.89661V6.89574L8.39379 6.22948L8.23925 6.31907L7.2432 6.89574L7.24364 6.89661L6.45644 7.3525L4.05806 6.5558L2.37595 8.8519L2.50686 9.03505L4.03223 11.1655L6.40565 10.4066L7.24364 10.892L7.2432 10.8924L8.04836 11.3584V13.6918L9.19938 14.3585L9.19895 14.3589L10.0032 14.8249ZM12.6507 13.3541V11.3672L13.4598 10.8985H13.4611L14.3022 10.411L15.1437 10.8985H15.1446L15.9848 11.3847V13.3365L15.1446 13.8232H15.1437L14.3022 14.3102L13.4611 13.8232H13.4598L12.6507 13.3541ZM12.001 11.3672V13.3541L11.1919 13.8232H11.1906L10.3495 14.3102L9.50848 13.8232H9.50718L8.66743 13.3365V11.4005L9.54439 10.8924V10.892L10.3618 10.4185L11.1906 10.8985H11.1919L12.001 11.3672ZM10.0763 9.85415L9.19895 10.3623L9.19938 10.3632L8.38154 10.8366L7.55274 10.3565H7.55143L6.74015 9.88621L6.75109 7.89534L7.55143 7.43199H7.55274L8.39379 6.94448L9.23528 7.43199H9.23617L10.0763 7.91818V9.85415ZM6.09261 7.88568V9.85722L4.27215 10.4395L3.70518 9.64772L3.13908 8.85674L4.28923 7.28662L6.09261 7.88568ZM9.49842 1.94163L13.4086 4.20611L17.3188 6.4706V11V15.529L13.4086 17.7935L9.49842 20.0584L5.58868 17.7935L1.6785 15.529V11V6.4706L5.58868 4.20611L9.49842 1.94163Z"></path>
</svg>